<svg width="80" height="80" viewBox="0 0 80 80" fill="none" xmlns="http://www.w3.org/2000/svg">
<path d="M32.813 40.0019L58.2047 18.8435C59.2182 17.9922 59.853 16.774 59.9702 15.4556C60.0874 14.1372 59.6773 12.8261 58.8299 11.8094C57.9824 10.7927 56.7666 10.1533 55.4486 10.0311C54.1307 9.90898 52.8181 10.3141 51.7982 11.1577L21.7969 36.1589C21.2344 36.6289 20.7819 37.2166 20.4714 37.8806C20.1609 38.5447 19.9999 39.2688 19.9999 40.0018C19.9999 40.7349 20.1609 41.459 20.4714 42.123C20.7819 42.787 21.2344 43.3748 21.7969 43.8448L51.7982 68.8459C52.8176 69.6935 54.1318 70.1019 55.4522 69.9812C56.7725 69.8606 57.9909 69.2207 58.8398 68.2023C59.6887 67.1839 60.0986 65.8702 59.9795 64.5497C59.8604 63.2293 59.2221 62.0101 58.2047 61.1599L32.813 40.0019Z" fill="#E8C54C"/>
</svg>
