<svg width="50" height="50" viewBox="0 0 50 50" fill="none" xmlns="http://www.w3.org/2000/svg">
<path d="M29.4918 24.9988L13.622 38.2228C12.9886 38.7549 12.5918 39.5162 12.5186 40.3402C12.4453 41.1642 12.7016 41.9837 13.2313 42.6191C13.761 43.2545 14.5208 43.6542 15.3446 43.7305C16.1683 43.8069 16.9887 43.5537 17.6261 43.0264L36.3769 27.4007C36.7285 27.107 37.0113 26.7396 37.2053 26.3246C37.3994 25.9096 37.5 25.457 37.5 24.9989C37.5 24.5407 37.3994 24.0881 37.2053 23.6731C37.0113 23.2581 36.7285 22.8908 36.3769 22.597L17.6261 6.97134C16.9889 6.44154 16.1676 6.18632 15.3424 6.26173C14.5172 6.33715 13.7556 6.73704 13.2251 7.37355C12.6945 8.01006 12.4383 8.83114 12.5128 9.65643C12.5872 10.4817 12.9862 11.2437 13.622 11.775L29.4918 24.9988Z" fill="#C9A62C"/>
</svg>
