<svg width="31" height="30" viewBox="0 0 31 30" fill="none" xmlns="http://www.w3.org/2000/svg">
<g clip-path="url(#clip0_238_60)">
<path d="M28.0278 4.34719C24.7334 1.05094 19.3906 1.05094 16.0962 4.34719L2.4181 17.8631C-0.140342 20.4216 -0.140342 24.5859 2.4181 27.1444C4.97653 29.7028 9.13997 29.7028 11.6975 27.1444L25.3756 13.6275C27.2065 11.7966 27.2065 8.82938 25.3756 6.99844C23.5447 5.16844 20.5765 5.16844 18.7475 6.99844L8.46497 17.2809C8.09841 17.6484 8.09841 18.24 8.46497 18.6075C8.83153 18.9741 9.42403 18.9741 9.7906 18.6075L20.074 8.32406C21.1709 7.22812 22.954 7.22812 24.0509 8.32406C25.1478 9.42094 25.1478 11.205 24.0509 12.3019L10.3728 25.8178C8.54185 27.6488 5.5756 27.6488 3.74466 25.8178C1.91372 23.9878 1.91372 21.0197 3.74466 19.1897L17.2887 5.805C19.8518 3.24187 24.0087 3.24187 26.5681 5.805C29.1331 8.36906 29.1331 12.5222 26.57 15.0853L16.4206 25.2356C16.0522 25.6031 16.0522 26.1947 16.4206 26.5613C16.7872 26.9288 17.3797 26.9288 17.7462 26.5613L28.0278 16.2788C31.324 12.9844 31.324 7.64156 28.0278 4.34719Z" fill="#C9A62C"/>
</g>
<defs>
<clipPath id="clip0_238_60">
<rect width="30" height="30" fill="white" transform="translate(0.5)"/>
</clipPath>
</defs>
</svg>
