<svg width="50" height="50" viewBox="0 0 50 50" fill="none" xmlns="http://www.w3.org/2000/svg">
<g clip-path="url(#clip0_53_81)">
<path d="M8.33329 33.3333V8.33332H4.16663V4.16666H10.4166C10.9692 4.16666 11.4991 4.38615 11.8898 4.77685C12.2805 5.16755 12.5 5.69746 12.5 6.24999V31.25H38.4125L42.5791 14.5833H16.6666V10.4167H45.25C45.5666 10.4167 45.8792 10.4889 46.1637 10.6278C46.4483 10.7667 46.6975 10.9686 46.8923 11.2183C47.0872 11.468 47.2225 11.7587 47.2881 12.0686C47.3537 12.3784 47.3478 12.6991 47.2708 13.0062L42.0625 33.8396C41.9496 34.2901 41.6894 34.69 41.3233 34.9757C40.9572 35.2614 40.5061 35.4166 40.0416 35.4167H10.4166C9.86409 35.4167 9.33419 35.1972 8.94349 34.8065C8.55279 34.4158 8.33329 33.8859 8.33329 33.3333ZM12.5 47.9167C11.3949 47.9167 10.3351 47.4777 9.55368 46.6963C8.77228 45.9149 8.33329 44.8551 8.33329 43.75C8.33329 42.6449 8.77228 41.5851 9.55368 40.8037C10.3351 40.0223 11.3949 39.5833 12.5 39.5833C13.605 39.5833 14.6648 40.0223 15.4462 40.8037C16.2276 41.5851 16.6666 42.6449 16.6666 43.75C16.6666 44.8551 16.2276 45.9149 15.4462 46.6963C14.6648 47.4777 13.605 47.9167 12.5 47.9167ZM37.5 47.9167C36.3949 47.9167 35.3351 47.4777 34.5537 46.6963C33.7723 45.9149 33.3333 44.8551 33.3333 43.75C33.3333 42.6449 33.7723 41.5851 34.5537 40.8037C35.3351 40.0223 36.3949 39.5833 37.5 39.5833C38.605 39.5833 39.6648 40.0223 40.4462 40.8037C41.2276 41.5851 41.6666 42.6449 41.6666 43.75C41.6666 44.8551 41.2276 45.9149 40.4462 46.6963C39.6648 47.4777 38.605 47.9167 37.5 47.9167Z" fill="white"/>
</g>
<defs>
<clipPath id="clip0_53_81">
<rect width="50" height="50" fill="white"/>
</clipPath>
</defs>
</svg>
