<svg width="50" height="50" viewBox="0 0 50 50" fill="none" xmlns="http://www.w3.org/2000/svg">
<g clip-path="url(#clip0_53_85)">
<path d="M40.625 3.125H12.5C11.6712 3.125 10.8763 3.45424 10.2903 4.04029C9.70424 4.62634 9.375 5.4212 9.375 6.25V12.5H6.25V15.625H9.375V23.4375H6.25V26.5625H9.375V34.375H6.25V37.5H9.375V43.75C9.375 44.5788 9.70424 45.3737 10.2903 45.9597C10.8763 46.5458 11.6712 46.875 12.5 46.875H40.625C41.4538 46.875 42.2487 46.5458 42.8347 45.9597C43.4208 45.3737 43.75 44.5788 43.75 43.75V6.25C43.75 5.4212 43.4208 4.62634 42.8347 4.04029C42.2487 3.45424 41.4538 3.125 40.625 3.125ZM40.625 43.75H12.5V37.5H15.625V34.375H12.5V26.5625H15.625V23.4375H12.5V15.625H15.625V12.5H12.5V6.25H40.625V43.75Z" fill="white"/>
<path d="M34.375 12.5H21.875V15.625H34.375V12.5Z" fill="white"/>
<path d="M34.375 23.4375H21.875V26.5625H34.375V23.4375Z" fill="white"/>
<path d="M34.375 34.375H21.875V37.5H34.375V34.375Z" fill="white"/>
</g>
<defs>
<clipPath id="clip0_53_85">
<rect width="50" height="50" fill="white"/>
</clipPath>
</defs>
</svg>
