<svg width="61" height="63" viewBox="0 0 61 63" fill="none" xmlns="http://www.w3.org/2000/svg">
<path d="M14.1709 48.9922C14.6709 49.5162 15.1709 49.7782 15.9209 49.7782C16.6709 49.7782 17.1709 49.5162 17.6709 48.9922L30.9209 35.1068L44.1709 48.9922C44.6709 49.5162 45.4209 49.7782 45.9209 49.7782C46.4209 49.7782 47.1709 49.5162 47.6709 48.9922C48.6709 47.9443 48.6709 46.3723 47.6709 45.3244L34.4209 31.439L47.6709 17.5535C48.6709 16.5056 48.6709 14.9336 47.6709 13.8857C46.6709 12.8377 45.1709 12.8377 44.1709 13.8857L30.9209 27.7711L17.6709 13.8857C16.6709 12.8377 15.1709 12.8377 14.1709 13.8857C13.1709 14.9336 13.1709 16.5056 14.1709 17.5535L27.4209 31.439L14.1709 45.3244C13.1709 46.3723 13.1709 47.9443 14.1709 48.9922Z" fill="black"/>
</svg>
