<svg width="30" height="31" viewBox="0 0 30 31" fill="none" xmlns="http://www.w3.org/2000/svg">
<path fill-rule="evenodd" clip-rule="evenodd" d="M4.99319 13.831C7.12213 16.1965 10.3718 18.5 14.9999 18.5C19.6279 18.5 22.8777 16.1965 25.0065 13.831C26.0717 12.6475 26.8437 11.4606 27.3487 10.5695C27.6005 10.1249 27.7845 9.75676 27.9039 9.50326C27.9637 9.3766 28.0071 9.2788 28.0349 9.2147C28.0489 9.18266 28.0589 9.15904 28.0649 9.1445L28.0711 9.12952L28.0717 9.12794C28.0715 9.12826 28.0715 9.1286 28.9999 9.5C29.9283 9.8714 29.9281 9.87182 29.9281 9.8723L29.9275 9.87342L29.9263 9.87636L29.9229 9.88496L29.9113 9.91288C29.9017 9.93616 29.8879 9.96872 29.8701 10.0099C29.8343 10.0923 29.7823 10.2093 29.7131 10.3561C29.5747 10.6495 29.3679 11.0626 29.0887 11.5555C28.5311 12.5394 27.6779 13.8525 26.4931 15.169C26.1275 15.5754 25.7289 15.9832 25.2965 16.3825L28.7069 19.7929L27.2927 21.2072L23.7431 17.6574C21.7275 19.1179 19.1649 20.2662 15.9999 20.4683L15.9999 24.5H13.9999L13.9999 20.4683C10.8348 20.2662 8.27231 19.1179 6.25667 17.6575L2.70701 21.2072L1.29279 19.7929L4.70323 16.3825C4.27093 15.9832 3.87235 15.5754 3.50659 15.169C2.32177 13.8525 1.46866 12.5394 0.911122 11.5555C0.631788 11.0626 0.425084 10.6495 0.286778 10.3561C0.217588 10.2093 0.165404 10.0923 0.129707 10.0099C0.111856 9.96872 0.0981167 9.93616 0.0884267 9.91288L0.0769163 9.88496L0.0734209 9.87636L0.0722353 9.87342L0.0717827 9.87228C0.0715953 9.87182 0.0714235 9.87138 0.9999 9.5C1.92838 9.12862 1.92824 9.12826 1.92811 9.12794L1.92793 9.1275L1.92876 9.12954L1.93493 9.1445C1.94099 9.15906 1.95093 9.18266 1.96482 9.2147C1.9926 9.2788 2.03611 9.3766 2.09583 9.50328C2.21533 9.75676 2.39925 10.1249 2.65117 10.5695C3.15613 11.4606 3.92801 12.6475 4.99319 13.831ZM1.92785 9.12728C1.92782 9.12722 1.92784 9.12728 1.92793 9.1275L1.92785 9.12728Z" fill="black" fill-opacity="0.4"/>
</svg>
