<svg width="30" height="31" viewBox="0 0 30 31" fill="none" xmlns="http://www.w3.org/2000/svg">
<g clip-path="url(#clip0_81_53)">
<path d="M0.625 15.5C2.11769 13.0218 4.22569 10.9716 6.7444 9.54839C9.26312 8.12517 12.107 7.37726 15 7.37726C17.893 7.37726 20.7369 8.12517 23.2556 9.54839C25.7743 10.9716 27.8823 13.0218 29.375 15.5" stroke="black" stroke-opacity="0.4" stroke-width="2" stroke-linecap="round" stroke-linejoin="round"/>
<path d="M0.625 15.5C2.11769 17.9782 4.22569 20.0284 6.7444 21.4516C9.26312 22.8748 12.107 23.6227 15 23.6227C17.893 23.6227 20.7369 22.8748 23.2556 21.4516C25.7743 20.0284 27.8823 17.9782 29.375 15.5" stroke="black" stroke-opacity="0.4" stroke-width="2" stroke-linecap="round" stroke-linejoin="round"/>
<path d="M15 19.7375C17.392 19.7375 19.3312 17.8403 19.3312 15.5C19.3312 13.1597 17.392 11.2625 15 11.2625C12.6079 11.2625 10.6687 13.1597 10.6687 15.5C10.6687 17.8403 12.6079 19.7375 15 19.7375Z" stroke="black" stroke-opacity="0.4" stroke-width="2" stroke-linecap="round" stroke-linejoin="round"/>
</g>
<defs>
<clipPath id="clip0_81_53">
<rect width="30" height="30" fill="white" transform="translate(0 0.5)"/>
</clipPath>
</defs>
</svg>
