<svg width="51" height="50" viewBox="0 0 51 50" fill="none" xmlns="http://www.w3.org/2000/svg">
<path d="M28.625 18.75V15.0293C28.625 13.3496 28.9961 12.5 31.6035 12.5H34.875V6.25H29.416C22.7266 6.25 20.5195 9.31641 20.5195 14.5801V18.75H16.125V25H20.5195V43.75H28.625V25H34.1328L34.875 18.75H28.625ZM32.7461 23.4375H28.7324H27.0625V24.9512V42.1875H22.082V24.9512V23.4375H20.627H17.6875V20.3125H20.627H22.082V18.7012V14.5801C22.082 12.1875 22.6094 10.5566 23.5957 9.52148C24.6895 8.34961 26.6328 7.8125 29.416 7.8125H33.3125V10.9375H31.6035C30.4316 10.9375 28.918 11.0449 27.9805 12.0801C27.1895 12.959 27.0625 14.043 27.0625 15.0195V18.6914V20.3125H28.7324H33.1172L32.7461 23.4375Z" fill="black"/>
</svg>
