<svg width="50" height="50" viewBox="0 0 50 50" fill="none" xmlns="http://www.w3.org/2000/svg">
<g clip-path="url(#clip0_54_91)">
<path d="M45.127 6.13868C42.8516 4.09375 39.9317 3.03711 36.9824 3.125C33.3213 3.125 29.626 4.62891 26.9238 7.41993L25 9.39942L23.0762 7.41993C20.3711 4.62891 16.6797 3.125 13.0176 3.125C10.0684 3.125 7.15139 4.09473 4.78908 6.13868C-1.27928 11.3916 -1.58299 20.7578 3.88771 26.4121L22.7549 45.9141C23.3789 46.5527 24.1797 46.875 24.9903 46.875C25.8039 46.875 26.6201 46.556 27.2373 45.9176L46.0947 26.4156C51.5821 20.752 51.2793 11.3867 45.127 6.13868ZM42.7344 23.1543L25 41.4941L7.25978 23.1543C4.11135 19.9023 3.36525 13.4863 7.85744 9.68262C11.7539 6.30958 17.0947 7.97364 19.7129 10.6758L25.0029 16.1367L30.292 10.6758C32.8721 8.0127 38.2276 6.292 42.1475 9.68262C46.5918 13.5352 45.9473 19.834 42.7344 23.1543Z" fill="white"/>
</g>
<defs>
<clipPath id="clip0_54_91">
<rect width="50" height="50" fill="white"/>
</clipPath>
</defs>
</svg>
