<svg width="25" height="25" viewBox="0 0 25 25" fill="none" xmlns="http://www.w3.org/2000/svg">
<g clip-path="url(#clip0_104_210)">
<path d="M12.5 0.5C7.5 0.5 3.5 4.5 3.5 9.5C3.5 15.7 6.9 21.2 12 24.4C12.3 24.6 12.7 24.6 13.1 24.4C18.1 21.1 21.5 15.7 21.5 9.5C21.5 4.5 17.5 0.5 12.5 0.5ZM12.5 13.5C10.3 13.5 8.5 11.7 8.5 9.5C8.5 7.3 10.3 5.5 12.5 5.5C14.7 5.5 16.5 7.3 16.5 9.5C16.5 11.7 14.7 13.5 12.5 13.5Z" fill="black" fill-opacity="0.5"/>
</g>
<defs>
<clipPath id="clip0_104_210">
<rect width="24" height="24" fill="white" transform="translate(0.5 0.5)"/>
</clipPath>
</defs>
</svg>
