<svg width="64" height="60" viewBox="0 0 64 60" fill="none" xmlns="http://www.w3.org/2000/svg">
<path d="M62.9994 37.4741H61.0426C58.6896 32.4301 58.6893 27.5068 61.0426 22.4282H62.9994C63.5521 22.4282 63.9994 21.9804 63.9994 21.4282C63.9994 20.8759 63.5521 20.4282 62.9994 20.4282H25.8978V19.685H57.8031C58.3558 19.685 58.8031 19.2373 58.8031 18.685C58.8031 18.1328 58.3558 17.685 57.8031 17.685H55.8463C53.493 12.6413 53.494 7.71854 55.8466 2.63864H57.8031C58.3558 2.63864 58.8031 2.19094 58.8031 1.63864C58.8031 1.08644 58.3558 0.638641 57.8031 0.638641H5.24449C4.88119 0.638641 4.54629 0.835941 4.36949 1.15384C0.736694 7.70894 0.752294 13.7949 4.41441 19.2431C4.59999 19.5195 4.91149 19.685 5.24449 19.685H15.3744V20.4282H10.4408C10.0775 20.4282 9.74259 20.6254 9.56579 20.9433C5.93199 27.498 5.94759 33.5839 9.61069 39.0322C9.79629 39.3085 10.1078 39.4741 10.4408 39.4741H62.9994C63.5521 39.4741 63.9994 39.0263 63.9994 38.4741C63.9994 37.9218 63.5521 37.4741 62.9994 37.4741ZM17.3744 9.64354H23.8978V26.9794L21.0492 25.6879C20.7855 25.5688 20.4867 25.5688 20.223 25.6879L17.3744 26.9794V9.64354ZM5.78749 17.685C2.91249 13.1084 2.93009 8.17624 5.84119 2.63864H53.663C51.578 7.65034 51.5768 12.7028 53.66 17.685H25.8978V9.64354H41.9437C42.4965 9.64354 42.9437 9.19584 42.9437 8.64354C42.9437 8.09134 42.4965 7.64354 41.9437 7.64354H12.1127C11.5599 7.64354 11.1127 8.09134 11.1127 8.64354C11.1127 9.19584 11.5599 9.64354 12.1127 9.64354H15.3744V17.685H5.78749ZM11.0375 22.4282H15.3744V28.5307C15.3744 28.8706 15.5472 29.187 15.8324 29.371C16.1185 29.5556 16.4789 29.5825 16.7875 29.4414L20.6361 27.6967L24.4847 29.4414C24.6166 29.5014 24.7572 29.5307 24.8978 29.5307C25.0873 29.5307 25.2758 29.477 25.4398 29.371C25.725 29.187 25.8978 28.8706 25.8978 28.5307V22.4282H58.859C56.7733 27.4389 56.7728 32.4912 58.8566 37.4741H10.9828C8.10779 32.8974 8.12541 27.9658 11.0375 22.4282Z" fill="white"/>
<path d="M54.192 42.3154H56.1488C56.7015 42.3154 57.1488 41.8676 57.1488 41.3154C57.1488 40.7631 56.7015 40.3154 56.1488 40.3154H3.59019C3.22689 40.3154 2.89199 40.5126 2.71519 40.8305C-0.919511 47.3852 -0.903911 53.4711 2.76009 58.9194C2.94669 59.1958 3.25719 59.3613 3.59019 59.3613H56.1488C56.7015 59.3613 57.1488 58.9135 57.1488 58.3613C57.1488 57.809 56.7015 57.3613 56.1488 57.3613H54.192C51.839 52.3168 51.8388 47.394 54.192 42.3154ZM4.13219 57.3613C1.25619 52.7846 1.27379 47.8525 4.18689 42.3154H52.0084C49.9227 47.3261 49.9225 52.3781 52.006 57.3613H4.13219Z" fill="white"/>
</svg>
