<svg width="30" height="31" viewBox="0 0 30 31" fill="none" xmlns="http://www.w3.org/2000/svg">
<path d="M22.5 10.5H25C25.3315 10.5 25.6495 10.6317 25.8839 10.8661C26.1183 11.1005 26.25 11.4185 26.25 11.75V26.75C26.25 27.0815 26.1183 27.3995 25.8839 27.6339C25.6495 27.8683 25.3315 28 25 28H5C4.66848 28 4.35054 27.8683 4.11612 27.6339C3.8817 27.3995 3.75 27.0815 3.75 26.75V11.75C3.75 11.4185 3.8817 11.1005 4.11612 10.8661C4.35054 10.6317 4.66848 10.5 5 10.5H7.5V9.25C7.5 7.26088 8.29018 5.35322 9.6967 3.9467C11.1032 2.54018 13.0109 1.75 15 1.75C16.9891 1.75 18.8968 2.54018 20.3033 3.9467C21.7098 5.35322 22.5 7.26088 22.5 9.25V10.5ZM13.75 20.165V23H16.25V20.165C16.7266 19.8898 17.0991 19.4651 17.3097 18.9566C17.5203 18.4482 17.5573 17.8845 17.4148 17.3529C17.2724 16.8213 16.9585 16.3516 16.5219 16.0166C16.0853 15.6815 15.5503 15.4999 15 15.4999C14.4497 15.4999 13.9147 15.6815 13.4781 16.0166C13.0415 16.3516 12.7276 16.8213 12.5852 17.3529C12.4427 17.8845 12.4797 18.4482 12.6903 18.9566C12.9009 19.4651 13.2734 19.8898 13.75 20.165ZM20 10.5V9.25C20 7.92392 19.4732 6.65215 18.5355 5.71447C17.5979 4.77678 16.3261 4.25 15 4.25C13.6739 4.25 12.4021 4.77678 11.4645 5.71447C10.5268 6.65215 10 7.92392 10 9.25V10.5H20Z" fill="black" fill-opacity="0.4"/>
</svg>
