<svg width="50" height="50" viewBox="0 0 50 50" fill="none" xmlns="http://www.w3.org/2000/svg">
<path fill-rule="evenodd" clip-rule="evenodd" d="M33.3333 18.75C33.3333 23.3523 29.6023 27.0833 25 27.0833C20.3976 27.0833 16.6666 23.3523 16.6666 18.75C16.6666 14.1476 20.3976 10.4167 25 10.4167C29.6023 10.4167 33.3333 14.1476 33.3333 18.75ZM29.1666 18.75C29.1666 21.0512 27.3012 22.9167 25 22.9167C22.6987 22.9167 20.8333 21.0512 20.8333 18.75C20.8333 16.4488 22.6987 14.5833 25 14.5833C27.3012 14.5833 29.1666 16.4488 29.1666 18.75Z" fill="white"/>
<path fill-rule="evenodd" clip-rule="evenodd" d="M25 2.08334C12.3435 2.08334 2.08337 12.3435 2.08337 25C2.08337 37.6565 12.3435 47.9167 25 47.9167C37.6565 47.9167 47.9167 37.6565 47.9167 25C47.9167 12.3435 37.6565 2.08334 25 2.08334ZM6.25004 25C6.25004 29.3546 7.73452 33.3625 10.225 36.5452C13.651 32.0602 19.0548 29.1667 25.1344 29.1667C31.135 29.1667 36.4775 31.9856 39.9094 36.3715C42.3188 33.2173 43.75 29.2758 43.75 25C43.75 14.6447 35.3555 6.25001 25 6.25001C14.6447 6.25001 6.25004 14.6447 6.25004 25ZM25 43.75C20.5204 43.75 16.4076 42.179 13.1827 39.5579C15.8199 35.7942 20.1897 33.3333 25.1344 33.3333C30.0175 33.3333 34.3402 35.7336 36.9871 39.4186C33.7373 42.1231 29.5586 43.75 25 43.75Z" fill="white"/>
</svg>
