<svg width="30" height="31" viewBox="0 0 30 31" fill="none" xmlns="http://www.w3.org/2000/svg">
<path d="M24.6859 20.4648C23.8304 19.5859 21.3988 17.9395 19.805 17.9395C19.4359 17.9395 19.1136 18.0215 18.85 18.1914C18.0707 18.6895 17.4496 19.0762 17.1507 19.0762C16.9867 19.0762 16.8109 18.9297 16.4242 18.5957L16.3597 18.5371C15.2875 17.6055 15.059 17.3652 14.6429 16.9316L14.5375 16.8203C14.4613 16.7441 14.3968 16.6738 14.3324 16.6094C13.9691 16.2344 13.7054 15.9648 12.7738 14.9102L12.7328 14.8633C12.2875 14.3594 11.9945 14.0312 11.9769 13.791C11.9593 13.5566 12.1644 13.1758 12.6859 12.4668C13.3187 11.6113 13.3422 10.5566 12.7621 9.33203C12.2992 8.36523 11.5433 7.43945 10.8754 6.625L10.8168 6.55469C10.2425 5.85156 9.57457 5.5 8.83043 5.5C8.00426 5.5 7.31872 5.94531 6.95543 6.17969C6.92614 6.19727 6.89684 6.2207 6.86754 6.23828C6.05309 6.75391 5.46129 7.46289 5.23864 8.18359C4.90465 9.26758 4.682 10.6738 6.28161 13.5977C7.66442 16.1289 8.91833 17.8281 10.9105 19.873C12.7855 21.7949 13.6175 22.416 15.4808 23.7637C17.555 25.2637 19.5472 26.125 20.9418 26.125C22.2367 26.125 23.2562 26.125 24.7093 24.373C26.2328 22.5332 25.6 21.4082 24.6859 20.4648Z" fill="black" fill-opacity="0.4"/>
</svg>
