<svg width="51" height="50" viewBox="0 0 51 50" fill="none" xmlns="http://www.w3.org/2000/svg">
<g clip-path="url(#clip0_69_328)">
<path d="M17.6875 26.3478L35.2461 41.7971C35.449 41.9767 35.6952 42.1005 35.9604 42.1562C36.2256 42.212 36.5008 42.1978 36.7589 42.115C37.0169 42.0323 37.249 41.8838 37.4324 41.6843C37.6158 41.4847 37.7441 41.2409 37.8047 40.9767L45.1485 8.90643C45.21 8.63024 45.1955 8.34251 45.1063 8.07396C45.0171 7.80541 44.8567 7.56612 44.6421 7.38163C44.4275 7.19715 44.1669 7.07439 43.888 7.02647C43.6091 6.97855 43.3225 7.00727 43.0586 7.10955L7.00393 21.2697C5.55862 21.8361 5.75393 23.9455 7.27737 24.258L17.6875 26.3478Z" stroke="black" stroke-width="2" stroke-linecap="round" stroke-linejoin="round"/>
<path d="M17.6875 26.3477L44.2695 7.14844" stroke="black" stroke-width="2" stroke-linecap="round" stroke-linejoin="round"/>
<path d="M26.457 34.0625L20.3633 40.1563C20.1459 40.377 19.8678 40.5281 19.5643 40.5905C19.2608 40.6528 18.9456 40.6235 18.6588 40.5062C18.372 40.389 18.1265 40.1891 17.9536 39.9321C17.7806 39.675 17.688 39.3723 17.6875 39.0625V26.3477" stroke="black" stroke-width="2" stroke-linecap="round" stroke-linejoin="round"/>
</g>
<defs>
<clipPath id="clip0_69_328">
<rect width="50" height="50" fill="white" transform="translate(0.5)"/>
</clipPath>
</defs>
</svg>
