<svg width="51" height="50" viewBox="0 0 51 50" fill="none" xmlns="http://www.w3.org/2000/svg">
<path d="M34.3672 7.8125C36.5449 7.8125 38.6445 8.7207 40.1289 10.3125L40.7246 10.9473L41.5742 10.7812C42.0137 10.6934 42.4434 10.5957 42.873 10.4785C42.7754 10.6152 42.3164 11.0742 41.7988 11.5332C41.3594 11.9238 40.0605 13.1445 40.0605 13.1445C40.0605 13.1445 41.3301 13.5449 42.1211 13.6328C42.9121 13.7207 43.8203 13.5742 43.9668 13.5547C43.6934 13.7793 43.2051 14.1211 42.9121 14.3262L42.2285 14.8242L42.2676 15.6641C42.2871 16.0352 42.2969 16.4258 42.2969 16.8164C42.2969 19.7656 41.7207 22.8516 40.6367 25.752C39.4941 28.7988 37.8535 31.5527 35.7539 33.9355C33.5078 36.4844 30.8516 38.4766 27.834 39.873C24.5332 41.4062 20.8711 42.1777 16.9453 42.1777C14.123 42.1777 11.3398 41.709 8.69336 40.791C9.66016 40.6055 10.6074 40.3418 11.5352 40.0195C13.6543 39.2773 15.627 38.1934 17.4043 36.7969L20.8516 34.0918L16.4668 34.0137C13.918 33.9648 11.6133 32.7051 10.1875 30.7031C10.9004 30.6543 11.6035 30.5273 12.2871 30.3418L18.2148 28.3691L12.1895 27.3047C9.29883 26.7285 7.0332 24.5801 6.20313 21.8555C6.96484 22.0508 7.70703 22.1289 8.53711 22.1777C8.53711 22.1777 11.6426 22.3145 13.9863 22.168C12.7168 21.5625 9.45508 19.3164 9.45508 19.3164C7.25781 17.8418 5.93945 15.3906 5.93945 12.7344C5.93945 12.1094 6.01758 11.4844 6.1543 10.8789C8.29297 13.0664 10.7441 14.8926 13.4883 16.2988C17.1016 18.1641 20.998 19.209 25.0703 19.4141L27.1406 19.5215L26.6719 17.5C26.5352 16.9238 26.4668 16.3184 26.4668 15.6934C26.4668 11.3574 30.0117 7.8125 34.3672 7.8125ZM34.3672 6.25C29.1426 6.25 24.9141 10.4883 24.9141 15.7129C24.9141 16.4551 24.9922 17.1777 25.1582 17.8711C17.2969 17.4805 10.3242 13.7109 5.66602 7.97852C4.85547 9.375 4.38672 11.0059 4.38672 12.7344C4.38672 16.0156 6.05664 18.916 8.5957 20.6152C7.04297 20.5762 5.57812 20.1465 4.30859 19.4336C4.30859 19.4727 4.30859 19.5117 4.30859 19.5508C4.30859 24.1406 7.57031 27.959 11.8965 28.8281C11.1055 29.043 10.2656 29.1602 9.40625 29.1602C8.80078 29.1602 8.20508 29.1016 7.62891 28.9844C8.83008 32.7441 12.3262 35.4785 16.4668 35.5566C13.2344 38.0957 9.15234 39.6094 4.71875 39.6094C3.95703 39.6094 3.20508 39.5605 2.46289 39.4727C6.64258 42.1875 11.6133 43.75 16.9453 43.75C34.3477 43.75 43.8594 29.3262 43.8594 16.8164C43.8594 16.4062 43.8496 15.9961 43.8301 15.5957C45.6758 14.2578 47.2773 12.5977 48.5469 10.6934C46.8477 11.4453 45.0312 11.9531 43.1172 12.1875C45.0703 11.0156 46.5742 9.16016 47.2773 6.95312C45.4512 8.03711 43.4297 8.82812 41.2715 9.24805C39.543 7.40234 37.082 6.25 34.3672 6.25Z" fill="black"/>
</svg>
