<svg width="51" height="50" viewBox="0 0 51 50" fill="none" xmlns="http://www.w3.org/2000/svg">
<g clip-path="url(#clip0_69_317)">
<path d="M41.1229 39.5207C40.5687 39.5207 39.4458 39.3894 38.1375 38.504C37.15 37.8311 36.1958 36.754 35.2729 35.7103C33.8708 34.1248 32.5291 32.6561 31.45 32.9957C29.9791 33.4603 29.6291 36.1811 29.65 37.5561C29.6479 37.6915 29.6166 38.2353 29.25 38.6269C28.975 38.9019 28.6062 39.0103 27.9104 39.0311L24.8208 39.0373C24.8229 39.0394 24.6729 39.0478 24.425 39.0478C22.8604 39.0478 17.375 38.6561 12.4937 33.629C6.20414 27.1561 0.641638 14.3665 0.585388 14.2373L0.729138 12.9144C0.739555 12.9082 0.749972 12.8998 0.758305 12.8936L1.08122 12.7332C1.48747 12.5915 1.96039 12.5811 2.07705 12.5811L9.05622 12.5373C9.24789 12.5561 9.89372 12.6769 10.3458 12.9936C10.7458 13.2936 10.9687 13.8019 10.9791 13.8248C11.0021 13.8811 12.1416 16.7353 13.6708 19.329C16.4125 24.0186 17.8687 25.6103 19.0521 24.9832C19.7875 24.5873 20.3979 22.2186 20.0916 17.8311C20.1 16.9332 19.9583 15.1603 19.3458 14.3519C18.9625 13.8332 18.3958 13.5311 17.9896 13.3686L16.6312 12.8269L17.7333 11.8686C17.8937 11.729 18.0625 11.6144 18.2333 11.529C19.1729 11.0769 20.6166 10.479 22.3854 10.479H24.8291C26.075 10.479 26.7479 10.7644 27.2875 10.9936C27.5333 11.0957 27.7479 11.1873 27.9771 11.2436C29.8854 11.6936 29.8166 13.4686 29.6916 16.6894C29.6541 17.6478 29.6104 18.7394 29.6104 19.9707C29.6104 20.2478 29.6021 20.5436 29.5937 20.8457C29.55 22.4019 29.4958 24.3061 30.5666 24.9915C31.1666 25.3644 32.4916 24.9665 35.7958 19.4123C37.3708 16.754 38.525 13.729 38.5354 13.6998C38.5666 13.6269 38.8208 13.0748 39.2041 12.8353C39.4583 12.679 39.7625 12.6478 39.975 12.6478L40.2541 12.6623L47.7916 12.604C47.7875 12.6019 48.0208 12.579 48.3333 12.579C49.4 12.579 49.8729 12.8353 49.9937 12.9123L50.2375 13.0707L50.3437 13.3436C50.7479 14.4144 49.4312 16.9623 46.4229 20.9186C45.7771 21.7644 45.2104 22.4957 44.7146 23.1311C41.3479 27.4436 41.3479 27.4436 44.9979 30.7915C48.1771 33.704 49.4687 35.5165 49.9916 36.5228C50.4229 37.2186 50.5291 37.8498 50.2812 38.3436C49.8041 39.2686 48.2583 39.3915 48.1937 39.3978L41.3375 39.5103C41.3479 39.5123 41.2562 39.5207 41.1229 39.5207ZM31.7937 31.1582C33.6312 31.1582 35.0125 32.7186 36.6125 34.5248C37.4625 35.4873 38.3416 36.479 39.1437 37.0228C40.1166 37.6811 40.9062 37.7353 41.125 37.7353V38.6269L41.1979 37.7311L48.1146 37.6144C48.2291 37.604 48.3791 37.5686 48.5104 37.5248C48.4916 37.4853 48.4666 37.4457 48.4396 37.3978C48.0354 36.6248 46.9354 34.9873 43.7937 32.104C39.4271 28.1019 39.3771 27.0644 43.3083 22.0311C43.8041 21.3998 44.3666 20.6769 45.0041 19.8373C47.3708 16.7228 48.1958 15.1123 48.4833 14.3644C48.25 14.3582 47.9625 14.3769 47.9187 14.3811L40.2083 14.4436L40.1229 14.4394C39.9541 14.9707 38.8229 17.7998 37.3312 20.3228C33.9083 26.0686 32.2208 26.8623 30.9041 26.8644C30.4354 26.8644 30.0021 26.7394 29.6146 26.4978C27.6854 25.2603 27.7562 22.6936 27.8083 20.8186C27.8187 20.5082 27.8271 20.229 27.8271 19.9665C27.8271 18.7082 27.8708 17.5936 27.9083 16.6144C28.0354 13.4082 27.9062 13.0561 27.5666 12.9769C27.2437 12.8978 26.9333 12.779 26.5958 12.6353C26.1208 12.4332 25.7146 12.2603 24.8291 12.2603H22.3854C21.5687 12.2603 20.8229 12.429 20.1916 12.6436C20.4 12.8269 20.5979 13.0394 20.775 13.2811C21.8583 14.7103 21.8812 17.279 21.875 17.779C22.2187 22.6832 21.5521 25.6582 19.8958 26.5519C19.4729 26.7769 19.0271 26.8915 18.5666 26.8915C16.6666 26.8915 15.0416 25.2082 12.1333 20.2269C10.5083 17.4748 9.34164 14.5269 9.32914 14.4978C9.25414 14.4103 9.02289 14.3311 8.90205 14.3082L2.59789 14.3603C3.93747 17.2832 8.65205 27.1165 13.7729 32.3894C18.1687 36.9123 23.0375 37.2644 24.425 37.2644C24.6125 37.2644 24.7291 37.2561 24.7583 37.254L27.8666 37.2498C27.8875 35.9727 28.1854 32.1519 30.9125 31.2957C31.1937 31.204 31.4916 31.1582 31.7937 31.1582Z" fill="black"/>
</g>
<defs>
<clipPath id="clip0_69_317">
<rect width="50" height="50" fill="white" transform="translate(0.5)"/>
</clipPath>
</defs>
</svg>
